<?xml version="1.0" encoding="utf-8"?>
<!-- Generator: Adobe Illustrator 27.5.0, SVG Export Plug-In . SVG Version: 6.00 Build 0)  -->
<svg version="1.1" id="layer" xmlns="http://www.w3.org/2000/svg" xmlns:xlink="http://www.w3.org/1999/xlink" x="0px" y="0px"
	 viewBox="0 0 450 450" style="enable-background:new 0 0 450 450;" xml:space="preserve">
<rect x="0" y="0" style="fill:#339AA6;" width="450" height="450"/>
<ellipse transform="matrix(0.0054 -1 1 0.0054 -81.2715 526.9565)" style="fill:#38AAB8;" cx="224.275" cy="304.335" rx="91.261" ry="158.076"/>
<g>
	<g>
		<g>
			<path style="fill:#D9D9D9;" d="M186.178,343.2c-7.3,5.142-16.402,7.034-25.146,5.229l-60.746-10.532
				c-9.823-1.93-11.891-15.068-3.136-19.922l78.476-43.516c12.342-6.844,26.703-9.115,40.555-6.414l63.088,9.588L186.178,343.2z"/>
			
				<linearGradient id="SVGID_1_" gradientUnits="userSpaceOnUse" x1="1322.0406" y1="2397.5125" x2="1649.0502" y2="2397.5125" gradientTransform="matrix(0.4999 -0.8476 -0.8653 -0.5319 1542.4158 2715.8528)">
				<stop  offset="0" style="stop-color:#737373"/>
				<stop  offset="0.0405" style="stop-color:#868686"/>
				<stop  offset="0.6188" style="stop-color:#868686"/>
				<stop  offset="0.6336" style="stop-color:#989898"/>
				<stop  offset="0.6523" style="stop-color:#A9A9A9"/>
				<stop  offset="0.6663" style="stop-color:#AFAFAF"/>
				<stop  offset="0.7071" style="stop-color:#DEDEDE"/>
				<stop  offset="0.9766" style="stop-color:#DEDEDE"/>
				<stop  offset="1" style="stop-color:#F9F9F9"/>
			</linearGradient>
			<path style="fill:url(#SVGID_1_);" d="M264.221,25.868l0.006-0.018l12.797,8.464l-8.028,12.539l-1.681,5.133l-0.049,208.503
				c-0.002,9.228-5.241,19.855-11.641,23.615l-79.651,46.787l-4.962,15.151l-13.096-8.661l0.005-0.016
				c-2.458-1.638-4.025-5.244-4.024-10.282l0.052-225.096c0.002-9.228,5.241-19.855,11.641-23.615l90.094-52.921
				C259.055,23.47,262.092,23.791,264.221,25.868z"/>
			
				<linearGradient id="SVGID_00000026130219447681337600000001801053212068756139_" gradientUnits="userSpaceOnUse" x1="1322.0406" y1="2391.8218" x2="1648.5898" y2="2391.8218" gradientTransform="matrix(0.4999 -0.8476 -0.8653 -0.5319 1542.4158 2715.8528)">
				<stop  offset="0" style="stop-color:#B3B3B3"/>
				<stop  offset="0.0405" style="stop-color:#BDBDBD"/>
				<stop  offset="0.6188" style="stop-color:#BDBDBD"/>
				<stop  offset="0.6206" style="stop-color:#BEBEBE"/>
				<stop  offset="0.6466" style="stop-color:#CFCFCF"/>
				<stop  offset="0.6663" style="stop-color:#D5D5D5"/>
				<stop  offset="0.7071" style="stop-color:#F0F0F0"/>
				<stop  offset="0.9766" style="stop-color:#F0F0F0"/>
				<stop  offset="1" style="stop-color:#FFFFFF"/>
			</linearGradient>
			<path style="fill:url(#SVGID_00000026130219447681337600000001801053212068756139_);" d="M163.551,333.466l0.052-225.096
				c0.002-9.228,5.241-19.855,11.641-23.615l90.094-52.921c2.479-1.456,4.775-1.658,6.665-0.841l1.74,1.151
				c0.042,0.039,0.09,0.068,0.131,0.109l0.006-0.018l3.144,2.079l-8.028,12.539l-1.681,5.133l-0.049,208.503
				c-0.002,9.228-5.241,19.855-11.641,23.615l-79.651,46.787l-4.962,15.151l-3.443-2.277l0.006-0.016
				C165.117,342.111,163.55,338.504,163.551,333.466z"/>
			<path style="fill:#F5F5F5;" d="M268.906,292.887l-90.094,52.921c-6.401,3.76-11.636-0.714-11.634-9.942l0.052-225.096
				c0.002-9.228,5.241-19.855,11.641-23.615l90.094-52.921c6.401-3.76,11.636,0.714,11.634,9.942l-0.052,225.097
				C280.546,278.5,275.307,289.127,268.906,292.887z"/>
			<path style="fill:#3A3B3B;" d="M176.314,344.451c-0.561-0.021-1.398-0.195-2.213-1.464c-0.908-1.415-1.408-3.637-1.407-6.255
				l0.051-225.097c0.002-8.065,4.595-17.575,10.03-20.768l90.094-52.921c1.024-0.602,1.986-0.905,2.779-0.875
				c0.561,0.021,1.398,0.194,2.213,1.464c0.908,1.415,1.409,3.636,1.407,6.255l-0.052,225.097
				c-0.002,8.065-4.594,17.576-10.03,20.767l-90.094,52.92C178.068,344.177,177.107,344.48,176.314,344.451z"/>
		</g>
		<path style="fill:#F5F5F5;" d="M248.255,62.06l-44.892,26.444c-7.105,4.186-13.924,4.615-18.76,1.18l-0.464-0.782l82.973-48.302
			l-0.358,0.691C262.085,50.326,255.361,57.875,248.255,62.06z"/>
		<path style="fill:#3A3B3B;" d="M221.312,70.63c0.001-2.056,1.345-4.561,3.003-5.595c1.658-1.034,3.002-0.205,3.001,1.851
			c-0.001,2.056-1.345,4.561-3.003,5.595C222.656,73.515,221.312,72.686,221.312,70.63z"/>
		<g>
			<g>
				<polygon style="fill:#38AAB8;" points="270.124,54.523 270.635,277.708 182.593,329.039 182.593,109.08 				"/>
				<polygon style="fill:#38AAB8;" points="258.362,284.864 182.593,329.039 182.593,226.825 				"/>
				<g id="XMLID_569_">
					<g id="XMLID_570_">
						<polygon id="XMLID_636_" style="fill:#8F6D4A;" points="270.241,291.176 270.124,291.253 265.197,288.654 265.041,288.576 
							264.267,58.178 270.163,54.523 						"/>
						<polygon id="XMLID_635_" style="fill:#947453;" points="258.368,284.863 265.024,288.577 265.024,57.701 258.368,61.85 						
							"/>
						<g id="XMLID_627_">
							<polygon id="XMLID_634_" style="fill:#858585;" points="270.23,242.536 270.23,269.367 264.548,266.08 264.548,239.249 
															"/>
							<g id="XMLID_631_">
								
									<linearGradient id="XMLID_00000078765766811391280000000001421994880144725635_" gradientUnits="userSpaceOnUse" x1="-4095.5347" y1="42.4412" x2="-4091.1372" y2="42.4412" gradientTransform="matrix(1 0 0 1 4361.9028 215.9262)">
									<stop  offset="0.1613" style="stop-color:#6E6E6E"/>
									<stop  offset="0.1633" style="stop-color:#858585"/>
									<stop  offset="0.5593" style="stop-color:#858585"/>
									<stop  offset="0.5622" style="stop-color:#C7C7C7"/>
									<stop  offset="0.8728" style="stop-color:#C7C7C7"/>
									<stop  offset="0.8739" style="stop-color:#B8B8B8"/>
								</linearGradient>
								<path id="XMLID_633_" style="fill:url(#XMLID_00000078765766811391280000000001421994880144725635_);" d="M268.464,263.88
									c1.157,0,2.096-0.53,2.096-1.184l0.063-9.842c-1.391,0.083-2.79,0.11-4.192,0.092l-0.062,9.75
									C266.368,263.35,267.306,263.88,268.464,263.88z"/>
								<path id="XMLID_632_" style="fill:#C7C7C7;" d="M266.43,252.94c0,0.656,0.941,1.188,2.103,1.188
									c1.161,0,2.103-0.532,2.103-1.188c0-0.656-0.941-1.188-2.103-1.188C267.371,251.752,266.43,252.284,266.43,252.94z"/>
							</g>
							<g id="XMLID_628_">
								
									<linearGradient id="XMLID_00000004509589613706454160000008237215891891624097_" gradientUnits="userSpaceOnUse" x1="-4095.1399" y1="33.2741" x2="-4091.5559" y2="33.2741" gradientTransform="matrix(1 0 0 1 4361.9028 215.9262)">
									<stop  offset="0.1613" style="stop-color:#6E6E6E"/>
									<stop  offset="0.1633" style="stop-color:#858585"/>
									<stop  offset="0.5593" style="stop-color:#858585"/>
									<stop  offset="0.5622" style="stop-color:#C7C7C7"/>
									<stop  offset="0.8728" style="stop-color:#C7C7C7"/>
									<stop  offset="0.8739" style="stop-color:#B8B8B8"/>
								</linearGradient>
								<path id="XMLID_630_" style="fill:url(#XMLID_00000004509589613706454160000008237215891891624097_);" d="M268.471,253.693
									c0.943,0,1.708-0.432,1.708-0.965l0.051-8.02c-1.134,0.067-2.273,0.09-3.416,0.075l-0.051,7.946
									C266.763,253.261,267.527,253.693,268.471,253.693z"/>
								<path id="XMLID_629_" style="fill:#C7C7C7;" d="M266.813,244.777c0,0.535,0.767,0.968,1.714,0.968
									c0.947,0,1.714-0.433,1.714-0.968c0-0.535-0.767-0.968-1.714-0.968C267.58,243.81,266.813,244.243,266.813,244.777z"/>
							</g>
						</g>
						<g id="XMLID_619_">
							<polygon id="XMLID_626_" style="fill:#858585;" points="270.23,104.66 270.23,131.492 264.548,128.203 264.548,101.372 
															"/>
							<g id="XMLID_623_">
								
									<linearGradient id="XMLID_00000065056357166158978460000017906301615903843761_" gradientUnits="userSpaceOnUse" x1="-4095.5347" y1="-95.4348" x2="-4091.1372" y2="-95.4348" gradientTransform="matrix(1 0 0 1 4361.9028 215.9262)">
									<stop  offset="0.1613" style="stop-color:#6E6E6E"/>
									<stop  offset="0.1633" style="stop-color:#858585"/>
									<stop  offset="0.5593" style="stop-color:#858585"/>
									<stop  offset="0.5622" style="stop-color:#C7C7C7"/>
									<stop  offset="0.8728" style="stop-color:#C7C7C7"/>
									<stop  offset="0.8739" style="stop-color:#B8B8B8"/>
								</linearGradient>
								<path id="XMLID_625_" style="fill:url(#XMLID_00000065056357166158978460000017906301615903843761_);" d="M268.464,126.004
									c1.157,0,2.096-0.53,2.096-1.184l0.063-9.842c-1.391,0.083-2.79,0.11-4.192,0.092l-0.062,9.75
									C266.368,125.474,267.306,126.004,268.464,126.004z"/>
								<path id="XMLID_624_" style="fill:#C7C7C7;" d="M266.43,115.064c0,0.656,0.941,1.188,2.103,1.187
									c1.161,0,2.103-0.531,2.103-1.187c0-0.656-0.941-1.188-2.103-1.188C267.371,113.876,266.43,114.408,266.43,115.064z"/>
							</g>
							<g id="XMLID_620_">
								
									<linearGradient id="XMLID_00000081634016448487421400000004347311748640503705_" gradientUnits="userSpaceOnUse" x1="-4095.1399" y1="-104.6021" x2="-4091.5559" y2="-104.6021" gradientTransform="matrix(1 0 0 1 4361.9028 215.9262)">
									<stop  offset="0.1613" style="stop-color:#6E6E6E"/>
									<stop  offset="0.1633" style="stop-color:#858585"/>
									<stop  offset="0.5593" style="stop-color:#858585"/>
									<stop  offset="0.5622" style="stop-color:#C7C7C7"/>
									<stop  offset="0.8728" style="stop-color:#C7C7C7"/>
									<stop  offset="0.8739" style="stop-color:#B8B8B8"/>
								</linearGradient>
								<path id="XMLID_622_" style="fill:url(#XMLID_00000081634016448487421400000004347311748640503705_);" d="M268.471,115.816
									c0.943,0,1.708-0.432,1.708-0.965l0.051-8.02c-1.134,0.067-2.273,0.09-3.416,0.075l-0.051,7.946
									C266.763,115.385,267.527,115.816,268.471,115.816z"/>
								<path id="XMLID_621_" style="fill:#C7C7C7;" d="M266.813,106.901c0,0.534,0.767,0.968,1.714,0.968
									c0.947,0,1.714-0.433,1.714-0.968c0-0.535-0.767-0.968-1.714-0.968S266.813,106.367,266.813,106.901z"/>
							</g>
						</g>
						<g id="XMLID_605_">
							<g id="XMLID_608_">
								<polygon id="XMLID_618_" style="fill:#9E8061;" points="351.091,106.486 345.546,109.605 345.546,334.615 351.091,331.495 
																	"/>
								<polygon id="XMLID_617_" style="fill:#947453;" points="345.546,109.605 270.124,66.317 270.124,291.253 345.546,334.615 
																	"/>
								<path id="XMLID_616_" style="fill:#795237;" d="M337.095,226.972l-4.49,0.075c0,0-1.29-3.117-2.361-3.293
									c-1.07-0.176-4.126,1.055-2.828,5.701c1.298,4.646,1.672,4.855,1.672,4.855l6.355,3.306l1.988-7.032L337.095,226.972z"/>
								<g id="XMLID_613_">
									<polygon id="XMLID_615_" style="fill:#8F6D4A;" points="337.163,123.417 278.69,90.734 278.69,192.949 337.163,225.631 
																			"/>
									<polygon id="XMLID_614_" style="fill:#876746;" points="280.93,92.021 280.93,191.653 337.163,223.049 337.163,225.631 
										278.69,192.949 278.69,90.734 									"/>
								</g>
								<g id="XMLID_610_">
									<polygon id="XMLID_612_" style="fill:#8F6D4A;" points="337.163,238.823 278.69,206.141 278.69,279.31 337.163,311.993 
																			"/>
									<polygon id="XMLID_611_" style="fill:#876746;" points="280.93,207.427 280.93,278.015 337.163,309.411 337.163,311.993 
										278.69,279.31 278.69,206.141 									"/>
								</g>
								<polygon id="XMLID_609_" style="fill:#E0CFB4;" points="275.671,63.198 270.124,66.317 345.546,109.605 351.091,106.486 
																	"/>
							</g>
							<polygon id="XMLID_607_" style="fill:#9E8061;" points="280.93,92.021 280.93,191.653 278.69,192.949 278.69,90.734 							
								"/>
							<polygon id="XMLID_606_" style="fill:#9E8061;" points="280.93,207.427 280.93,278.015 278.69,279.31 278.69,206.141 							
								"/>
						</g>
						<g id="XMLID_599_">
							<g id="XMLID_603_">
								
									<linearGradient id="XMLID_00000044876936802848993970000011496911502334161311_" gradientUnits="userSpaceOnUse" x1="2356.7429" y1="-3575.783" x2="2363.4067" y2="-3575.783" gradientTransform="matrix(-0.5 -0.866 0.866 -0.5 4613.8755 486.4098)">
									<stop  offset="0.1613" style="stop-color:#B3B3B2"/>
									<stop  offset="0.1633" style="stop-color:#D7D7D7"/>
									<stop  offset="0.5593" style="stop-color:#D7D7D7"/>
									<stop  offset="0.5622" style="stop-color:#FFFFFF"/>
									<stop  offset="0.8728" style="stop-color:#FFFFFF"/>
									<stop  offset="0.8739" style="stop-color:#F1F1F1"/>
								</linearGradient>
								<path id="XMLID_604_" style="fill:url(#XMLID_00000044876936802848993970000011496911502334161311_);" d="M340.272,228.846
									c-0.887-1.536-2.31-2.376-3.177-1.874l-4.445,2.541c1.176,1.783,2.285,3.619,3.335,5.494l4.323-2.472
									C341.175,232.034,341.159,230.383,340.272,228.846z"/>
							</g>
							<g id="XMLID_600_">
								
									<linearGradient id="XMLID_00000036231443719872864150000008008898544267175820_" gradientUnits="userSpaceOnUse" x1="2353.8955" y1="-3578.5007" x2="2366.2883" y2="-3578.5007" gradientTransform="matrix(-0.5 -0.866 0.866 -0.5 4613.8755 486.4098)">
									<stop  offset="0.1613" style="stop-color:#999999"/>
									<stop  offset="0.1633" style="stop-color:#B0B0B0"/>
									<stop  offset="0.5593" style="stop-color:#B0B0B0"/>
									<stop  offset="0.5622" style="stop-color:#EDEDEC"/>
									<stop  offset="0.8728" style="stop-color:#EDEDEC"/>
									<stop  offset="0.8739" style="stop-color:#DFDFDE"/>
								</linearGradient>
								<path id="XMLID_602_" style="fill:url(#XMLID_00000036231443719872864150000008008898544267175820_);" d="M337.43,230.584
									c-1.651-2.858-4.297-4.42-5.911-3.487l-2.039,1.136c2.187,3.317,4.25,6.732,6.204,10.222l1.812-1.007
									C339.109,236.515,339.08,233.443,337.43,230.584z"/>
								<path id="XMLID_601_" style="fill:#CCCCCB;" d="M335.603,238.536c1.62-0.935,1.591-4.018-0.065-6.886
									c-1.656-2.868-4.311-4.435-5.931-3.499c-1.62,0.935-1.591,4.018,0.066,6.886
									C331.328,237.904,333.983,239.471,335.603,238.536z"/>
							</g>
						</g>
						<g id="XMLID_571_">
							<polygon id="XMLID_598_" style="fill:#84A3AA;" points="346.833,222.137 346.833,247.514 346.146,247.114 346.146,221.737 
															"/>
							<polygon id="XMLID_597_" style="fill:#B4C7CB;" points="350.573,219.956 350.573,245.333 346.833,247.514 346.833,222.137 
															"/>
							<polygon id="XMLID_596_" style="fill:#E8F2F7;" points="349.885,219.556 346.146,221.737 346.833,222.137 350.573,219.956 
															"/>
							<g id="XMLID_592_">
								<polygon id="XMLID_595_" style="fill:#97ADAD;" points="347.69,230.183 347.691,238.035 349.596,239.143 349.596,231.292 
																	"/>
								<polygon id="XMLID_594_" style="fill:#BDCDCD;" points="349.596,231.292 349.596,239.143 351.633,237.934 351.633,230.085 
																	"/>
								<polygon id="XMLID_593_" style="fill:#DDE9F5;" points="349.727,228.976 347.69,230.183 349.596,231.292 351.633,230.085 
																	"/>
							</g>
							<g id="XMLID_582_">
								<path id="XMLID_590_" style="fill:#B5C6C9;" d="M349.443,223.747c-0.087-0.114-0.212-0.175-0.362-0.177l-0.032,0.001
									c-0.195,0.009-0.4,0.114-0.574,0.279c-0.156,0.149-0.288,0.344-0.366,0.56c-0.011,0.03-0.021,0.062-0.03,0.093
									c-0.053,0.188-0.058,0.366-0.016,0.512c0.02,0.072,0.05,0.136,0.092,0.19c0.065,0.087,0.153,0.142,0.257,0.164
									c0.043,0.01,0.088,0.014,0.136,0.011c0.396-0.016,0.831-0.434,0.971-0.932C349.597,224.169,349.569,223.913,349.443,223.747
									z"/>
								<path id="XMLID_589_" style="fill:#A0B5BA;" d="M348.322,224.532l-0.025,0.618l-0.233-0.135
									c-0.043-0.146-0.037-0.324,0.016-0.512c0.009-0.032,0.019-0.063,0.03-0.093L348.322,224.532z"/>
								<path id="XMLID_588_" style="fill:#B5C6C9;" d="M348.665,223.959l-0.344,0.572l-0.212-0.122
									c0.078-0.216,0.21-0.411,0.366-0.56L348.665,223.959z"/>
								<path id="XMLID_587_" style="fill:#CCD9E0;" d="M349.259,223.673l-0.594,0.286l-0.19-0.11
									c0.174-0.165,0.379-0.27,0.574-0.279l0.032-0.001L349.259,223.673z"/>
								<path id="XMLID_586_" style="fill:#90A8AD;" d="M348.412,225.369c-0.104-0.022-0.191-0.078-0.257-0.164
									c-0.042-0.054-0.072-0.118-0.092-0.19l0.233,0.135L348.412,225.369z"/>
								<path id="XMLID_584_" style="fill:#AEBFC2;" d="M348.211,225.245c0.093,0.122,0.229,0.183,0.393,0.176
									c0.396-0.017,0.831-0.435,0.971-0.932c0.078-0.28,0.05-0.536-0.076-0.702c-0.093-0.122-0.229-0.183-0.393-0.176
									c-0.396,0.016-0.831,0.434-0.97,0.932C348.057,224.824,348.085,225.079,348.211,225.245z"/>
								<path id="XMLID_583_" style="fill:#6F8C92;" d="M348.348,225.355c-0.046-0.027-0.091-0.057-0.126-0.101l1.235-1.5
									c0.013,0.014,0.031,0.019,0.043,0.034c0.023,0.03,0.039,0.066,0.055,0.101L348.348,225.355z"/>
							</g>
							<g id="XMLID_572_">
								<path id="XMLID_580_" style="fill:#B5C6C9;" d="M349.443,242.728c-0.087-0.114-0.212-0.175-0.362-0.176l-0.032,0.001
									c-0.195,0.009-0.4,0.114-0.574,0.279c-0.156,0.148-0.288,0.344-0.366,0.56c-0.011,0.031-0.021,0.062-0.03,0.093
									c-0.053,0.188-0.058,0.366-0.016,0.512c0.02,0.072,0.05,0.136,0.092,0.19c0.065,0.086,0.153,0.142,0.257,0.164
									c0.043,0.01,0.088,0.013,0.136,0.011c0.396-0.015,0.831-0.434,0.971-0.932C349.597,243.15,349.569,242.894,349.443,242.728z
									"/>
								<path id="XMLID_579_" style="fill:#A0B5BA;" d="M348.322,243.513l-0.025,0.618l-0.233-0.135
									c-0.043-0.146-0.037-0.324,0.016-0.512c0.009-0.031,0.019-0.063,0.03-0.093L348.322,243.513z"/>
								<path id="XMLID_578_" style="fill:#B5C6C9;" d="M348.665,242.941l-0.344,0.572l-0.212-0.123
									c0.078-0.216,0.21-0.412,0.366-0.56L348.665,242.941z"/>
								<path id="XMLID_577_" style="fill:#CCD9E0;" d="M349.259,242.654l-0.594,0.287l-0.19-0.11
									c0.174-0.164,0.379-0.27,0.574-0.279l0.032-0.001L349.259,242.654z"/>
								<path id="XMLID_576_" style="fill:#90A8AD;" d="M348.412,244.35c-0.104-0.022-0.191-0.078-0.257-0.164
									c-0.042-0.054-0.072-0.118-0.092-0.19l0.233,0.135L348.412,244.35z"/>
								<path id="XMLID_574_" style="fill:#AEBFC2;" d="M348.211,244.227c0.093,0.122,0.229,0.182,0.393,0.176
									c0.396-0.016,0.831-0.434,0.971-0.932c0.078-0.28,0.05-0.536-0.076-0.702c-0.093-0.122-0.229-0.183-0.393-0.176
									c-0.396,0.017-0.831,0.435-0.97,0.932C348.057,243.805,348.085,244.061,348.211,244.227z"/>
								<path id="XMLID_573_" style="fill:#6F8C92;" d="M348.348,244.336c-0.046-0.027-0.091-0.057-0.126-0.101l1.235-1.5
									c0.013,0.013,0.031,0.019,0.043,0.035c0.023,0.03,0.039,0.066,0.055,0.101L348.348,244.336z"/>
							</g>
						</g>
					</g>
				</g>
			</g>
			<polygon style="fill:#38AAB8;" points="182.593,329.039 182.593,341.184 268.858,290.585 255.687,283.375 			"/>
			<polygon id="XMLID_640_" style="fill:#D9D9D9;" points="345.546,334.615 335.572,334.615 265.067,294.881 258.362,284.864 
				270.124,291.253 			"/>
		</g>
	</g>
	<g>
		<g>
			<g>
				
					<ellipse transform="matrix(0.0054 -1 1 0.0054 -66.4545 510.3376)" style="fill:#D9D9D9;" cx="223.328" cy="288.577" rx="20.229" ry="35.04"/>
				<path style="fill:#4D4640;" d="M222.506,274.795c0,0-0.93,0.2-1.022,0.782c-0.092,0.582-0.381,2.729-0.105,3.214
					c0.277,0.484,1.982,2.002,5.143,2.617c3.161,0.615,9.876,3.21,14.381,2.955c5.008-1.116,4.892-3.168,4.892-3.168l0.083-2.556
					c0,0-0.489-1.807-1.833-2.138C241.904,275.972,222.506,274.795,222.506,274.795z"/>
				<path style="fill:#4D4640;" d="M206.597,291.251c0,0-0.546,0.762-0.616,1.234c-0.07,0.471-0.083,1.713-0.062,1.915
					c0.021,0.202,2.465,2.613,3.327,3.929c0.862,1.317,3.699,4.288,6.018,5.488c2.319,1.2,6.012,0.635,8.08,0.263
					c2.069-0.371,4.435-2.323,4.707-3.082c0.271-0.759-0.073-2.799-0.073-2.799s-1.089-1.11-1.323-1.074
					C226.42,297.161,206.597,291.251,206.597,291.251z"/>
				<path style="fill:#FCC7AA;" d="M246.899,178.326c-0.908,0.405-1.642,0.582-1.969,0.366c-0.099-0.065-0.202-0.138-0.304-0.216
					c0-0.004,0-0.004,0-0.004c-1.224-0.935-2.673-2.79-4.439-4.466c-1.728-1.64-3.629-3.343-4.291-4.154
					c-0.072-0.09-0.131-0.166-0.172-0.234c-0.417-0.671,2.259-6.577,8.566-4.911c0,0,1.363,0.847,3.182,3.319
					c1.824,2.472,5.486,4.496,5.896,5.386C253.675,174.077,249.552,177.158,246.899,178.326z"/>
				<path style="fill:#FAD3BE;" d="M257.439,187.54c0,0-0.961,0.149-2.334,0.266c-4.592-3.944-10.441-9.027-10.479-9.331
					c0-0.004,0-0.004,0-0.004c-1.224-0.935-2.673-2.79-4.439-4.466c-1.728-1.64-3.629-3.343-4.291-4.154
					c2.623-1.722,6.546-4.042,6.729-4.15c-0.115,0.172-2.571,3.785-2.669,4.901c-0.099,1.146,5.483,4.881,5.563,5.77
					c0.029,0.308,0.267,0.412,0.57,0.413c0.561,0.001,1.35-0.351,1.35-0.351s-1.356,1.215-1.201,1.439
					c0.025,0.036,0.27,0.197,0.661,0.452c2.088,1.34,8.387,5.143,8.473,5.33C255.474,183.883,257.439,187.54,257.439,187.54z"/>
				<path style="fill:#FF6835;" d="M245.383,164.817c0,0-1.2,3.177-3.887,4.844c-0.68,0.421-1.298,0.8-1.844,1.125
					c-1.615,0.969-2.589,1.508-2.589,1.508s-2.154-1.746-3.883-3.5c-1.023-1.038-1.898-2.076-2.095-2.762
					c-0.523-1.846-1.348-16.934-1.348-16.934l2.411-1.566c0,0,4.148,2.219,6.748,7.643
					C241.502,160.593,245.383,164.817,245.383,164.817z"/>
				<path style="fill:#CF6763;" d="M239.652,170.786c-1.615,0.969-2.589,1.508-2.589,1.508s-2.154-1.746-3.883-3.5
					c1.237-1.622,2.693-3.475,3.345-4.111c0,0,0.067,1.985,0.681,3.194C237.99,169.419,239.382,170.307,239.652,170.786z"/>
				<path style="fill:#B8B5B3;" d="M232.829,271.852c0,0,0.855-0.447,3.144,1.126c2.288,1.573,8.416,3.13,8.858,4.148
					c0.442,1.018,0.227,3.131-1.819,4.198c-2.045,1.067-5.264,1.108-8.091,0.358c-2.827-0.75-9.876-2.077-11.885-3.276
					c-2.008-1.199-1.029-4.311-1.01-4.895C222.046,272.926,232.829,271.852,232.829,271.852z"/>
				<path style="fill:#B8B5B3;" d="M218.86,289.347c0,0,2.104,2.482,2.365,3.038c0.26,0.557,5.884,4.688,6.021,5.516
					c0.138,0.827-0.406,2.345-3.907,3.766s-7.366,0.528-8.984-0.293c-1.618-0.82-3.265-3.287-5.466-5.58
					c-2.201-2.293-2.816-2.779-2.763-3.545c0.052-0.766,0.376-3.963,0.376-3.963S214.345,284.868,218.86,289.347z"/>
				<path style="fill:#EBA02F;" d="M239.366,218.178c-0.21,5.367-2.849,23.487-3.479,27.196c-0.634,3.708-2.058,20.477-2.195,22.377
					c-0.132,1.895-0.157,4.82-0.157,4.82s-1.133,3.398-5.462,3.915c-1.546,0.182-2.831-0.088-3.856-0.556
					c-1.846-0.841-2.833-2.316-2.907-2.88c-0.116-0.881-0.619-19.104-0.559-20.931c0.049-1.499,1.685-19.937,2.268-26.498
					c0.13-1.435,0.207-2.301,0.207-2.301s-0.144-1.781,0.003-4.001c0.197-2.955,0.911-6.687,3.166-8.035
					c1.611-0.961,3.973-2.09,6.238-3.074c3.298-1.437,6.379-2.569,6.59-2.43c0,0,0.03,0.567,0.065,1.498
					c0.026,0.681,0.055,1.559,0.083,2.556C239.436,212.279,239.477,215.444,239.366,218.178z"/>
				<path style="fill:#D4902A;" d="M225.14,256.504c-0.294,2.812-0.766,12.855-0.923,19.427c-1.846-0.841-2.833-2.316-2.907-2.88
					c-0.116-0.881-0.619-19.104-0.559-20.931c0.049-1.499,1.685-19.937,2.268-26.498l8.288-1.235c0,0-5.249,12.99-5.6,14.733
					C225.356,240.863,225.567,252.421,225.14,256.504z"/>
				<path style="fill:#F3A531;" d="M231.307,224.386c-0.017,0.513-0.582,2.1-1.754,4.404c-1.172,2.3-5.664,9.976-6.049,10.621
					c-0.385,0.645-1.507,12.603-1.61,15.741c-0.102,3.142-2.224,34.585-2.768,35.519c-0.539,0.934-6.228,2.649-8.612,1.768
					c-0.42-0.158-0.848-0.348-1.267-0.572c-1.937-1.015-3.649-2.589-3.493-3.606c0.185-1.236-2.516-26.04-2.312-27.858
					c0.209-1.823,0.557-10.366,0.407-12.49c-0.15-2.128-0.704-7.481-1.15-9.544c-0.446-2.063-1.277-7.938-1.871-12.2
					c-0.589-4.257,0.414-12.709,0.414-12.709s1.242-0.284,3.216-0.676c7.175-1.424,24.049-4.292,26.208-0.264
					C233.426,217.655,231.323,223.873,231.307,224.386z"/>
				<path style="fill:#D4902A;" d="M209.247,291.868c-1.937-1.015-3.649-2.589-3.493-3.606c0.185-1.236-2.516-26.04-2.312-27.858
					c0.209-1.823,0.557-10.366,0.407-12.49c-0.15-2.128-0.704-7.481-1.15-9.544c-0.446-2.063-1.277-7.938-1.871-12.2
					c-0.589-4.257,0.414-12.709,0.414-12.709s1.242-0.284,3.216-0.676c0.022,0.26,0.023,0.519,0.001,0.781
					c0,0-1.246,15.753-1.313,17.799c-0.067,2.047,3.298,10.93,3.298,10.93s-1.251,16.042-1.399,20.573
					C204.939,266.16,207.919,281.203,209.247,291.868z"/>
				<path style="fill:#E33E1E;" d="M240.32,205.741c0,0-0.621,1.151-0.996,1.503c-0.009,0.008-0.023,0.021-0.036,0.034
					c-0.294,0.275-1.561,1.471-3.02,3.012c-1.286,1.358-2.721,2.978-3.77,4.484c-2.043,2.916-6.786,4.021-9.269,4.545
					c-0.318,0.064-0.596,0.121-0.83,0.17c-2.063,0.446-16.222-0.309-18.112-0.59c-0.201-0.028-0.396-0.096-0.586-0.199
					c-1.635-0.834-2.941-3.864-2.941-3.864s-1.274-8.013-1.48-10.577c-0.21-2.564,0.387-9.714,0.492-12.926
					c0.105-3.212-1.847-6.057-2.438-8.121c-0.012-0.044-0.028-0.097-0.048-0.155c-0.136-0.421-0.421-1.211-0.8-2.255
					c-1.326-3.605-3.825-10.241-5.256-15.074c-0.85-2.875-1.321-5.11-0.946-5.69c0.051-0.082,0.124-0.176,0.22-0.283
					c0.046-0.055,0.087-0.107,0.132-0.158c0.296-0.328,0.722-0.748,1.251-1.24c3.668-3.39,12.079-10.017,13.005-10.838
					c0.131-0.114,0.367-0.234,0.687-0.351l0-0.004c2.477-0.902,10.109-1.777,14.56-1.342c5.029,0.493,12.009,1.708,12.009,1.708
					c5.807,6.221,4.267,18.749,4.074,22.397c-0.189,3.648,1.304,22.855,1.365,25.415c0.002,0.062,0.005,0.123,0.011,0.189
					C237.778,198.27,240.32,205.741,240.32,205.741z"/>
				<path style="fill:#CF6763;" d="M239.287,207.278c0.026,0.681,0.055,1.559,0.083,2.556c-1.133,0.169-2.314,0.346-3.103,0.456
					c-0.516,0.071-0.864,0.117-0.925,0.115c-0.175-0.006-1.541-1.182-2.71-2.194c-0.755-0.652-1.429-1.231-1.648-1.383
					c-0.558-0.382-3.494-2.233-3.494-2.233l-6.881-4.247l-7.498-1.065l-6.309,0.689l-5.039,2.099l2.111,2.547l10.895,4.387
					l-4.441-0.513l-7.015-2.422l7.548,3.966l-1.05,0.852l-6.793-2.485c0,0,0.998,6.674,0.682,10.297
					c-1.635-0.834-2.941-3.864-2.941-3.864s-1.274-8.013-1.48-10.577c-0.21-2.564,0.387-9.714,0.492-12.926
					c0.105-3.212-1.847-6.057-2.438-8.121c-0.102-0.354-0.412-1.215-0.847-2.41l6.764-10.883l0.579,4.581l-0.052,3.876
					c0,0,0.245,3.645,0.388,3.842c0.139,0.193,1.68,2.292,1.652,3.169c-0.029,0.876-0.157,4.82-0.157,4.82s8.764,2.992,10.355,3.044
					c1.455,0.047,18.665,1.951,21.585,2.279c0.178,2.739,2.72,10.21,2.72,10.21s-0.621,1.151-0.996,1.503
					C239.314,207.253,239.301,207.265,239.287,207.278z"/>
				<path style="fill:#FCC7AA;" d="M187.463,178.648c0,0-0.413,8.176,0.041,12.212c0.453,4.036,0.724,4.703,2.093,5.332
					c1.369,0.63,8.465-6.231,9.1-7.746c0.634-1.515,1.457-8.8,1.457-8.8L187.463,178.648z"/>
				<path style="fill:#FCC7AA;" d="M262.255,184.486l-1.737,7.95c0,0-2.442-2.076-5.412-4.629
					c-4.592-3.944-10.441-9.027-10.479-9.331c0-0.004,0-0.004,0-0.004c0.007-0.21,0.634-0.888,1.463-1.685
					c0.942-0.899,2.147-1.957,3.013-2.657c1.635-1.316,4.266-0.717,4.266-0.717s1.972,1.139,4.233,4.174
					C259.858,180.622,262.255,184.486,262.255,184.486z"/>
				<polygon style="fill:#FEBA6F;" points="242.075,177.741 217.764,188.39 247.635,195.58 270.327,184.146 				"/>
				<polygon style="fill:#FEFFC5;" points="242.391,179.178 222.007,188.107 247.053,194.135 266.079,184.548 				"/>
				<polygon style="fill:#70BAE7;" points="264.066,185.562 224.39,188.68 222.007,188.107 224.187,187.152 264.114,184.102 
					266.079,184.548 				"/>
				<polygon style="fill:#B66B3D;" points="247.762,201.781 270.457,190.237 270.327,184.146 247.635,195.58 217.764,188.39 
					217.572,194.271 				"/>
				<polygon style="fill:#E2934C;" points="247.635,195.58 247.849,200.411 270.422,188.56 270.327,184.146 				"/>
				<path style="fill:#CF6763;" d="M234.805,196.322l-1.046,1.023l-0.031,0.944l-10.736-2.671l1.296-3.808l0.871-1.451
					c0,0,6.827,2.476,8.058,3.414C234.447,194.711,235.138,195.996,234.805,196.322z"/>
				<path style="fill:#FCC7AA;" d="M272.272,189.283c0,0-0.619,1.349-0.709,1.565c-0.09,0.216-0.209,2.243-0.209,2.243
					s-0.061,0.108-0.14,0.25c-0.107,0.176-0.246,0.409-0.324,0.529c-0.147,0.214-0.896,0.572-1.149,0.673
					c-0.249,0.102-1.13,1.034-1.378,1.1c-0.248,0.062-1.266,0.213-2.116,0.186c-0.85-0.028-1.992-0.258-2.209-0.327
					c-0.217-0.073-1.513-1.229-1.513-1.229l2.208-1.126l-0.004-0.009c-0.03-0.155-0.607-2.766-0.541-3.19
					c0.05-0.314,0.355-0.813,0.513-1.058c0.064-0.094,0.106-0.154,0.106-0.154s-0.013-0.277,0.002-0.61
					c0.017-0.403,0.073-0.884,0.24-1.028c0.298-0.253,1.071,0.109,1.145,0.143l0.004,0.005c0,0,0,0,0.151-0.46
					c0.151-0.464,0.537-0.452,1.08-0.294c0.543,0.154,2.177,2.124,2.177,2.124l0.837,0.821l-0.02-0.878c0,0-0.217-0.608-0.206-0.937
					c0.011-0.329,0.164-1.008,0.164-1.008s0.341-0.235,0.972-0.214c0.627,0.02,0.803,0.544,0.982,0.962
					C272.514,187.781,272.272,189.283,272.272,189.283z"/>
				<path style="fill:#FCC7AA;" d="M236.121,199.975c-0.075,0.024-0.203,0.038-0.37,0.041c-0.509,0.005-1.388-0.072-2.185-0.124
					c-0.858-0.054-2.42-0.307-2.988-0.4l-0.009,0c-0.131-0.022-0.205-0.033-0.205-0.033s-0.219-0.007-1.135-0.037
					c-0.228-0.007-0.581-0.076-0.977-0.172c-0.801-0.193-1.787-0.506-2.338-0.686l-0.013-0.005
					c-0.247-0.083-0.404-0.136-0.404-0.136l-0.852,0.152l-0.525,0.093l-0.022,0.004c0,0-2.463-0.629-3.396-1.207
					c-0.933-0.579-1.691-0.862-3.436-1.174c-1.745-0.311-6.139,1.116-10.43,1.56c-4.292,0.448-13.566,0.036-14.946-0.303
					c-1.375-0.339-2.857-0.896-3.436-2.248c-0.375-0.885-0.3-2.238,0.191-3.442c0.258-0.632,0.628-1.23,1.113-1.692
					c1.395-1.341,5.254-3.044,7.439-2.789c2.185,0.251,4.639,1.138,4.639,1.138c10.323,1.872,15.906,0.589,16.768,0.397
					c0.866-0.191,4.048-2.663,5.09-2.466c1.042,0.201,3.695,1.037,3.695,1.037s1.89,0.281,2.477,0.335
					c0.582,0.054,1.248,0.883,1.084,1.461c-0.164,0.578-2.219,0.77-2.986,0.745c-0.767-0.025-3.06-0.341-3.06-0.341
					s-0.185,0.016-0.022,0.421c0.162,0.409,4.386,2.595,5.214,2.877c0.833,0.282,4.459,2.374,4.734,2.822
					c0.279,0.448-0.397,1.014-0.759,0.962c-0.297-0.036-2.25-0.819-3.324-1.13l-0.004-0.005l-0.022-0.005
					c-0.248-0.07-0.444-0.115-0.558-0.119c-0.622-0.02-2.723-0.584-2.723-0.584l3.754,2.342c0.052,0.028,0.103,0.06,0.146,0.088
					l0.353,0.217c0.021,0.014,0.034,0.023,0.047,0.033c0,0,3.808,0.931,4.422,1.096C236.78,198.865,236.418,199.876,236.121,199.975
					z"/>
				<path style="fill:#D4902A;" d="M219.157,219.668c0,0-0.98,4.29-5.262,4.699c-4.281,0.409-6.564-0.214-6.564-0.214l2.924-2.218
					c0,0,5.182-2.378,6.141-2.357C217.354,219.599,219.157,219.668,219.157,219.668z"/>
				<path style="fill:#FAD3BE;" d="M264.699,188.891c0.064-0.094,0.106-0.154,0.106-0.154s-0.013-0.277,0.002-0.61
					c0.047,0.041,0.844,0.76,0.993,1.164c0.149,0.417,2.258,4.759,2.258,4.759l-0.671-0.68l-2.001-4.013L264.699,188.891z"/>
				<path style="fill:#FAD3BE;" d="M268.526,191.407l-2.33-4.16c0,0,0,0,0.151-0.46l1.63,3.014l1.44,2.925l-0.022,0.684
					L268.526,191.407z"/>
				<path style="fill:#FAD3BE;" d="M271.196,193.358c0.004-0.004,0.013-0.008,0.018-0.017c-0.107,0.176-0.246,0.409-0.324,0.529
					c-0.147,0.214-0.896,0.572-1.149,0.673c-0.249,0.102-1.13,1.034-1.378,1.1c-0.248,0.062-1.266,0.213-2.116,0.186
					c-0.85-0.028-1.992-0.258-2.209-0.327c-0.217-0.073-1.513-1.229-1.513-1.229l2.208-1.126l0.215,1.213l2.094,0.647l1.477,0.048
					l0.851-0.797C269.368,194.259,270.623,193.835,271.196,193.358z"/>
				<path style="fill:#FAD3BE;" d="M271.851,188.72c-0.061,0.134-0.622,1.322-0.622,1.322l-0.184,0.678l-0.603-1.283l-0.02-0.878
					c0,0-0.217-0.608-0.206-0.937c0.011-0.329,0.164-1.008,0.164-1.008s0.278,0.75,0.353,1.025c0.074,0.279,0.942,0.579,0.942,0.579
					S271.909,188.586,271.851,188.72z"/>
				<path style="fill:#FAD3BE;" d="M223.629,198.542l0.492,0.126l-0.022,0.004c0,0-2.463-0.629-3.396-1.207
					c-0.933-0.579-1.691-0.862-3.436-1.174c-1.745-0.311-6.139,1.116-10.43,1.56c-4.292,0.448-13.566,0.036-14.946-0.303
					c-1.375-0.339-2.857-0.896-3.436-2.248c-0.375-0.885-0.3-2.238,0.191-3.442c0.183,1.927,0.679,3.536,1.769,3.87
					c3.041,0.919,7.309,1.208,12.323,1.077c5.014-0.13,14.222-1.182,15.138-1.152C218.787,195.682,223.629,198.542,223.629,198.542z
					"/>
				<path style="fill:#FAD3BE;" d="M222.937,197.313l2.965,1.246c-0.247-0.083-0.404-0.136-0.404-0.136l-0.852,0.152
					L222.937,197.313z"/>
				<path style="fill:#FAD3BE;" d="M227.734,198.202l2.836,1.29c-0.131-0.022-0.205-0.033-0.205-0.033s-0.219-0.007-1.135-0.037
					c-0.228-0.007-0.581-0.076-0.977-0.172l-0.248-0.341c0,0-3.314-2.631-3.023-2.551
					C225.268,196.441,227.734,198.202,227.734,198.202z"/>
				<path style="fill:#FAD3BE;" d="M227.441,194.92l3.754,2.342c-1.192-0.706-3.834-2.174-3.834-2.174l-3.128-1.607l2.283,0.623
					l4.206,1.519c-0.248-0.07-0.444-0.115-0.558-0.119C229.542,195.484,227.441,194.92,227.441,194.92z"/>
				<path style="fill:#FAD3BE;" d="M236.121,199.975c-0.075,0.024-0.203,0.038-0.37,0.041c0.067-0.05,0.109-0.115,0.12-0.194
					c0.137-0.838-1.391-1.072-1.391-1.072s-2.358-0.862-2.74-1.151c0,0,3.808,0.931,4.422,1.096
					C236.78,198.865,236.418,199.876,236.121,199.975z"/>
				<path style="fill:#FF6835;" d="M202.786,172.861c-0.286,2.035-2.313,10.379-2.313,10.379s-1.975,0.01-2.261-0.074
					c-0.057-0.015-0.406-0.053-0.926-0.109c-2.051-0.203-6.788-0.625-7.015-0.808c-0.116-0.092-0.835-0.378-1.648-0.734
					c-1.207-0.531-2.619-1.204-2.519-1.596c0.171-0.653,2.25-17.33,4.18-19.882c0.073-0.094,0.147-0.188,0.22-0.283
					c0.046-0.055,0.087-0.107,0.132-0.158c0.374-0.448,0.792-0.878,1.251-1.24c0.806-0.641,1.742-1.093,2.832-1.158
					c1.512-0.091,3.307,0.56,5.425,2.485C204.929,164.038,203.072,170.822,202.786,172.861z"/>
				<path style="fill:#CF6763;" d="M205.58,147.169l-3.246,3.886c0,0-4.865,3.763-7.614,6.144c-0.93,0.808-1.613,1.452-1.79,1.74
					c-0.264,0.439-0.952,3.246-1.7,6.788c-1.173,5.568-2.501,12.948-2.607,15.787c-1.207-0.531-2.619-1.204-2.519-1.596
					c0.171-0.653,2.25-17.33,4.18-19.882c0.051-0.082,0.124-0.176,0.22-0.283c0.046-0.055,0.087-0.107,0.132-0.158
					c0.374-0.448,0.792-0.878,1.251-1.24c3.668-3.39,12.079-10.017,13.005-10.838C205.024,147.406,205.26,147.286,205.58,147.169z"
					/>
				<path style="fill:#FCC7AA;" d="M220.369,147.147c0,0,1.74,2.141,1.623,4.056c-0.117,1.915-0.478,5.523-8.281,3.843
					c-7.803-1.68-9.595-5.565-9.709-6.129c-0.114-0.565,1.164-1.388,1.25-4.017c0.086-2.629-1.808-8.449-2.363-9.948
					c-0.554-1.499,8.495-6.578,11.934-6.082C218.262,129.366,220.369,147.147,220.369,147.147z"/>
				<path style="fill:#FAD3BE;" d="M208.838,144.616c0,0,4.799,3.792,5.824,4.319c1.025,0.527,4.347,1.238,4.347,1.238
					s0.893,1.876,1.572,2.793c0.68,0.917,2.443-3.156,2.443-3.156l1.673-2.523c0,0-0.805-1.023-1.021-1.051
					c-0.216-0.028-5.564-0.523-5.564-0.523S209.346,142.727,208.838,144.616z"/>
				<path style="fill:#FEDE36;" d="M218.841,155.333l0.858-1.815c0,0,1.299-0.78,1.502-1.98c0.204-1.2-0.638-4.134-0.638-4.134
					l1.298-0.972c0,0,1.433,3.151,1.387,4.545c-0.045,1.393-1.435,5.735-1.435,5.735l-1.063-1.46L218.841,155.333z"/>
				<path style="fill:#FCC7AA;" d="M218.919,124.342c0,0,2.201,1.443,2.716,5.846c0.514,4.404,1.27,8.157,1.198,10.349
					c-0.072,2.191-0.726,6.045-1.368,6.646c-0.643,0.601-2.975,1.548-5.093,1.205c-2.118-0.343-8.052-3.388-8.975-5.338
					c-0.924-1.949-3.74-4.838-4.575-6.894c-0.836-2.056-2.409-5.946-0.949-8.695C203.333,124.711,218.919,124.342,218.919,124.342z"
					/>
				<path style="fill:#4A2727;" d="M210.768,129.629c0,0-3.395,1.521-3.423,2.397c-0.029,0.877-1.036,3.165-0.898,3.997
					c0.137,0.832,0.934,3.298,0.934,3.298l-1.06-0.035c0,0-1.177-3.685-1.541-4.273c-0.365-0.588-0.802-1.276-1.529-0.963
					c-0.726,0.314,0.527,4.769,0.527,4.769l-0.885-0.029c0,0-1.67-0.658-3.01-3.279c-1.34-2.621,1.728-8.444,1.728-8.444
					L210.768,129.629z"/>
				<path style="fill:#FFD6BF;" d="M204.619,134.761c0,0-1.287-1.33-2.463-1.149c-1.176,0.181-1.108,2.294-0.513,3.41
					c0.594,1.116,3.057,3.538,3.596,3.545c0.539,0.006,0.906-0.327,0.919-0.738c0.013-0.411-0.611-2.296-0.611-2.296
					S205.227,135.427,204.619,134.761z"/>
				<path style="fill:#FFD6BF;" d="M217.486,126.8c0,0,1.038,2.922,1.256,4.099c0.217,1.177-0.066,2.009-0.066,2.009
					s-3.838-0.016-4.578,0.253c-0.74,0.268-2.646,0.425-3.204,1.833c-0.558,1.408,0.346,2.826,2.05,3.284
					c1.703,0.458,2.739,0.089,2.739,0.089s-0.556,2.468-1.489,3.059c-0.933,0.591-3.755-1.439-4.894-2.389
					c-1.139-0.951-1.953-4.012-1.953-4.012s0.302-2.549,0.49-2.689c0.187-0.14,0.205-0.688,0.205-0.688s3.382-1.681,4.427-2.342
					C213.514,128.644,215.716,126.157,217.486,126.8z"/>
				<path style="fill:#FFD6BF;" d="M217.427,131.989l0.979,4.106l0.221,1.819l-0.4,0.937c0,0,1.607,0.052,2.155,0.07
					c0.548,0.018,0.673-0.453,0.673-0.453l-2.378-5.561L217.427,131.989z"/>
				<path style="fill:#FEDE36;" d="M207.639,129.732c0,0-3.151,1.625-4.111,2.471c-0.96,0.846-3.415,3.734-3.415,3.734
					s-1.107,0.396-2.257-3.864c-1.15-4.26-0.808-5.209,0.721-8.394c1.53-3.186,4.144-4.892,7.508-6.025
					c3.364-1.133,8.43,0.458,9.507,1.078c1.077,0.62,3.985,4.48,4.05,4.738C219.707,123.728,210.189,129.157,207.639,129.732z"/>
				<path style="fill:#D62400;" d="M219.472,123.633l4.842,0.062c0,0,1.683,1.079,2.096,1.86s-0.156,1.423-1.811,1.715
					c-1.655,0.292-3.967-0.699-3.967-0.699s-0.557-1.021-2.851-1.16c-2.294-0.139,0.058-1.78,0.058-1.78L219.472,123.633z"/>
				<path style="fill:#FF6835;" d="M224.314,123.695c0,0-4.409-0.722-5.059-0.82c-0.651-0.098-6.038,1.445-8.538,2.972
					c-2.499,1.527-5.163,5.024-5.163,5.024s4.786-0.211,6.073-0.425c1.286-0.214,4.207-4.579,6.975-5.366
					C221.37,124.294,223.254,123.697,224.314,123.695z"/>
			</g>
			<g>
				<path style="fill:#FEDE36;" d="M228.276,161.229c0,0-0.591,8.485-0.595,8.543c-0.01,0.144,0.687,0.223,0.778,0.217
					c0.386-0.026,0.734-0.258,1.096-0.372c0.424-0.133,0.879-0.115,1.324-0.137c0.306-0.015,0.611-0.051,0.912-0.106
					c0.17-0.031,0.346-0.071,0.48-0.181c0.104-0.085,0.174-0.205,0.271-0.299c0.127-0.123,0.292-0.195,0.446-0.282
					c0.228-0.127,0.814-0.484,0.838-0.775c0.014-0.179-0.274-0.556-0.358-0.726L228.276,161.229z"/>
				<path style="fill:#E33E1E;" d="M230.03,164.096c0.051,0.363-0.202,0.699-0.565,0.75c-0.363,0.051-0.699-0.202-0.75-0.565
					c-0.051-0.363,0.201-0.699,0.565-0.75C229.643,163.48,229.979,163.733,230.03,164.096z"/>
				<path style="fill:#E33E1E;" d="M230.623,166.255c0.051,0.363-0.202,0.699-0.565,0.75s-0.699-0.202-0.75-0.565
					c-0.051-0.363,0.202-0.699,0.565-0.75C230.236,165.639,230.572,165.892,230.623,166.255z"/>
				<path style="fill:#E33E1E;" d="M229.702,168.059c0.051,0.363-0.202,0.699-0.565,0.75c-0.363,0.051-0.699-0.202-0.75-0.565
					c-0.051-0.363,0.202-0.699,0.565-0.75C229.316,167.443,229.651,167.695,229.702,168.059z"/>
				<path style="fill:#E33E1E;" d="M232.735,167.202c0.051,0.363-0.202,0.699-0.565,0.75c-0.363,0.051-0.699-0.202-0.75-0.565
					c-0.051-0.363,0.202-0.699,0.565-0.75C232.348,166.587,232.684,166.839,232.735,167.202z"/>
			</g>
			<path style="fill:#FEDE36;" d="M217.288,153.823c0,0-8.453-1.262-10.454-3.028c-2.002-1.765-2.173-3.91-2.173-3.91
				s-2.228,0.666-2.229,1.229c-0.001,0.563-0.048,1.455-0.048,1.455s1.316,4.084,4.328,4.95c3.012,0.866,11.568,3.064,11.568,3.064
				l0.561-2.251L217.288,153.823z"/>
		</g>
	</g>
</g>
<g>
	<path style="fill:#F5F5F5;" d="M145.439,415.6v3.321h7.65v2.015h-7.65v7.896h-2.178v-13.259c0-3.566,2.314-5.881,5.908-5.881
		c1.933,0,4.003,0.463,5.445,1.171l-0.572,1.96c-1.361-0.654-3.24-1.117-4.71-1.117C146.964,411.706,145.439,413.231,145.439,415.6z
		"/>
	<path style="fill:#F5F5F5;" d="M170.543,421.644c0,4.274-3.022,7.269-7.269,7.269c-4.275,0-7.27-2.995-7.27-7.269
		c0-4.248,2.995-7.215,7.27-7.215C167.521,414.429,170.543,417.397,170.543,421.644z M158.128,421.672
		c0,3.212,2.124,5.39,5.146,5.39c2.995,0,5.145-2.178,5.145-5.39c0-3.158-2.15-5.364-5.145-5.364
		C160.252,416.308,158.128,418.513,158.128,421.672z"/>
	<path style="fill:#F5F5F5;" d="M187.37,421.644c0,4.274-3.022,7.269-7.269,7.269c-4.275,0-7.27-2.995-7.27-7.269
		c0-4.248,2.995-7.215,7.27-7.215C184.348,414.429,187.37,417.397,187.37,421.644z M174.954,421.672c0,3.212,2.124,5.39,5.146,5.39
		c2.995,0,5.145-2.178,5.145-5.39c0-3.158-2.151-5.364-5.145-5.364C177.078,416.308,174.954,418.513,174.954,421.672z"/>
	<path style="fill:#F5F5F5;" d="M204.279,408.63v20.202h-2.123v-3.077c-1.062,2.015-3.022,3.186-5.581,3.186
		c-4.084,0-6.916-3.022-6.916-7.297c0-4.274,2.832-7.243,6.889-7.243c2.559,0,4.547,1.171,5.609,3.213v-8.985H204.279z
		 M202.155,421.698c0-3.158-2.151-5.445-5.173-5.445c-3.049,0-5.2,2.288-5.2,5.445c0,3.158,2.151,5.419,5.2,5.419
		C200.004,427.117,202.155,424.857,202.155,421.698z"/>
	<path style="fill:#F5F5F5;" d="M230.934,408.63v20.202h-2.123v-3.077c-1.062,2.015-3.022,3.186-5.581,3.186
		c-4.084,0-6.916-3.022-6.916-7.297c0-4.274,2.832-7.243,6.889-7.243c2.559,0,4.547,1.171,5.609,3.213v-8.985H230.934z
		 M228.811,421.698c0-3.158-2.151-5.445-5.173-5.445c-3.05,0-5.2,2.288-5.2,5.445c0,3.158,2.15,5.419,5.2,5.419
		C226.66,427.117,228.811,424.857,228.811,421.698z"/>
	<path style="fill:#F5F5F5;" d="M246.781,424.857l1.28,1.143c-1.579,1.961-3.594,2.913-5.989,2.913c-4.275,0-7.27-2.967-7.27-7.269
		c0-4.166,2.832-7.188,7.079-7.215c3.54-0.028,6.099,2.096,6.562,5.581l-11.135,3.784c0.734,2.07,2.559,3.35,4.9,3.35
		C243.977,427.144,245.529,426.382,246.781,424.857z M236.926,421.563c0,0.218,0,0.408,0.027,0.626l9.366-3.24
		c-0.735-1.824-2.287-2.722-4.329-2.722C238.967,416.227,236.926,418.241,236.926,421.563z"/>
	<path style="fill:#F5F5F5;" d="M255.168,426.953c0.463,0,0.98-0.218,1.497-0.599l0.408,1.716c-0.789,0.544-1.634,0.843-2.423,0.843
		c-1.715,0-2.967-1.197-2.967-3.512V408.63h2.096v16.527C253.779,426.382,254.296,426.953,255.168,426.953z"/>
	<path style="fill:#F5F5F5;" d="M262.248,410.4c0,0.817-0.599,1.443-1.389,1.443c-0.789,0-1.388-0.626-1.388-1.443
		c0-0.844,0.599-1.443,1.388-1.443C261.649,408.957,262.248,409.556,262.248,410.4z M261.921,414.511v14.321h-2.097v-14.321H261.921
		z"/>
	<path style="fill:#F5F5F5;" d="M266.876,414.511l4.573,12.171l4.547-12.171h2.151l-5.636,14.321h-2.205l-5.69-14.321H266.876z"/>
	<path style="fill:#F5F5F5;" d="M290.728,424.857l1.28,1.143c-1.579,1.961-3.594,2.913-5.989,2.913c-4.275,0-7.27-2.967-7.27-7.269
		c0-4.166,2.832-7.188,7.079-7.215c3.54-0.028,6.099,2.096,6.562,5.581l-11.135,3.784c0.735,2.07,2.559,3.35,4.9,3.35
		C287.923,427.144,289.475,426.382,290.728,424.857z M280.872,421.563c0,0.218,0,0.408,0.027,0.626l9.365-3.24
		c-0.735-1.824-2.287-2.722-4.329-2.722C282.913,416.227,280.872,418.241,280.872,421.563z"/>
	<path style="fill:#F5F5F5;" d="M303.143,414.429v2.069c-3.022-0.054-4.901,1.824-5.146,4.711v7.623h-2.123v-14.321h2.123v3.186
		C298.951,415.6,300.72,414.457,303.143,414.429z"/>
	<path style="fill:#F5F5F5;" d="M318.663,414.511v12.742c0,4.302-2.642,6.943-6.943,6.915c-2.151-0.054-4.438-0.953-5.882-2.342
		l0.654-1.551c1.306,1.197,3.185,1.987,5.036,2.069c3.131,0,5.01-1.906,5.01-5.119v-2.641c-0.953,1.987-2.723,3.022-5.255,3.049
		c-3.594,0-5.772-2.123-5.772-5.581v-7.542h2.124v6.997c0,2.559,1.525,4.084,4.084,4.084c3.049-0.055,4.819-2.124,4.819-5.5v-5.581
		H318.663z"/>
</g>
</svg>
